<svg xmlns="http://www.w3.org/2000/svg" width="81" height="29" fill="none"><path d="M8.6178 23.848H12.0463L16.7276 6.39691V23.848H20.6506V0.746094H15.31L10.6947 17.8648L6.07937 0.746094H0.672852V23.848H3.93654V6.39691L8.6178 23.848ZM26.0596 29.0002C29.7189 29.0002 31.0706 26.3742 32.1914 22.9505L37.3672 7.1282H33.576L29.9167 19.693L26.2574 7.1282H22.1366L27.8398 24.5793C27.4113 25.377 26.7849 25.8756 25.697 25.8756C24.9718 25.8756 24.3454 25.6429 23.9168 25.2108V28.4351C23.9168 28.4351 24.5102 29.0002 26.0596 29.0002V29.0002ZM43.078 21.0558C41.067 21.0558 39.0891 20.3245 38.0341 19.5268V22.751C38.7924 23.3826 40.7044 24.1804 43.5395 24.1804C47.7263 24.1804 49.9351 22.2857 49.9351 18.9284C49.9351 16.9673 48.7153 15.6377 46.5395 15.1723C48.5834 14.5075 49.4406 13.0449 49.4406 11.1835C49.4406 8.35808 47.2318 6.79579 43.6714 6.79579C41.1 6.79579 39.4187 7.59356 38.4627 8.19188V11.4162C39.5176 10.7181 40.9682 9.92036 43.111 9.92036C44.5615 9.92036 45.4846 10.6184 45.4846 11.8483C45.4846 13.1447 44.6934 13.8427 43.078 13.8427H40.6055V16.8343H43.078C45.089 16.8343 45.8802 17.4326 45.8802 18.8952C45.8802 20.2248 44.9241 21.0558 43.078 21.0558V21.0558ZM64.7776 22.7178V19.4935C63.5579 20.3245 61.5139 21.0558 59.6019 21.0558C56.7338 21.0558 55.6459 19.693 55.4811 16.9008H64.9425V14.8067C64.9425 8.98964 62.404 6.79579 58.481 6.79579C53.7009 6.79579 51.4262 10.4854 51.4262 15.5379C51.4262 21.355 54.2613 24.1804 59.2722 24.1804C61.7777 24.1804 63.6238 23.5156 64.7776 22.7178V22.7178ZM58.4151 9.92036C60.3601 9.92036 60.9535 11.5491 60.9535 13.6433V13.9757H55.4811C55.58 11.3164 56.536 9.92036 58.4151 9.92036ZM74.2619 4.93435C77.3607 4.93435 78.9101 3.0729 78.9101 0.746094H75.6135C75.6135 1.84302 75.086 2.4081 74.2619 2.4081C73.3718 2.4081 72.7784 1.87626 72.7784 0.746094H69.4817C69.4817 3.10614 71.0971 4.93435 74.2619 4.93435ZM67.5696 7.1282V23.848H70.9652L77.031 13.5103V23.848H80.8552V7.1282H77.4596L71.3938 17.4659V7.1282H67.5696V7.1282Z" fill="#FFFFFF"/></svg>