<svg width="29" height="27" viewBox="0 0 29 27" fill="none" xmlns="http://www.w3.org/2000/svg">
<g clip-path="url(#clip0_201_73367)">
<path d="M1.47925 25.9658H3.69409C4.61987 25.9658 5.1355 25.4384 5.1355 24.5244V4.73145C5.1355 3.80567 4.61987 3.27832 3.69409 3.27832H1.47925C0.541748 3.27832 0.0378418 3.80567 0.0378418 4.73145V24.5244C0.0378418 25.4384 0.541748 25.9658 1.47925 25.9658ZM7.948 25.9658H12.694C13.6316 25.9658 14.1355 25.4384 14.1355 24.5244V8.72754C14.1355 7.81348 13.6316 7.28614 12.694 7.28614H7.948C7.0105 7.28614 6.49487 7.81348 6.49487 8.72754V24.5244C6.49487 25.4384 7.0105 25.9658 7.948 25.9658ZM9.06128 11.4697C8.6394 11.4697 8.323 11.1533 8.323 10.7431C8.323 10.3447 8.6394 10.0283 9.06128 10.0283H11.6042C12.0144 10.0283 12.319 10.3447 12.319 10.7431C12.319 11.1533 12.0144 11.4697 11.6042 11.4697H9.06128ZM9.06128 23.2353C8.6394 23.2353 8.323 22.9189 8.323 22.5088C8.323 22.1103 8.6394 21.7939 9.06128 21.7939H11.6042C12.0144 21.7939 12.319 22.1103 12.319 22.5088C12.319 22.9189 12.0144 23.2353 11.6042 23.2353H9.06128ZM16.948 25.9658H19.8425C20.78 25.9658 21.2839 25.4384 21.2839 24.5244V1.48535C21.2839 0.559571 20.78 0.0322266 19.8425 0.0322266H16.948C16.0105 0.0322266 15.5066 0.559571 15.5066 1.48535V24.5244C15.5066 25.4384 16.0105 25.9658 16.948 25.9658ZM24.9167 26.0244L26.8034 25.7549C27.7175 25.6377 28.1628 25.0752 28.0573 24.1494L25.819 4.70801C25.7136 3.79395 25.1628 3.31348 24.2253 3.44239L22.3503 3.71192C21.4245 3.82911 20.9792 4.39161 21.0847 5.30567L23.3347 24.747C23.4401 25.6611 23.9909 26.1416 24.9167 26.0244Z" fill="white" fill-opacity="0.85"/>
</g>
<defs>
<clipPath id="clip0_201_73367">
<rect width="28.0348" height="26.7539" fill="white" transform="translate(0.0378418 0.0322266)"/>
</clipPath>
</defs>
</svg>
