<svg xmlns="http://www.w3.org/2000/svg" width="39" height="39" fill="none"><path d="M19.0192 38.354C29.5232 38.354 38.0384 29.7681 38.0384 19.177C38.0384 8.58583 29.5232 0 19.0192 0C8.51518 0 0 8.58583 0 19.177C0 29.7681 8.51518 38.354 19.0192 38.354Z" fill="#050505"/><path d="M21.8243 10.7391H19.9002C16.6003 10.7391 14.952 12.4043 14.952 14.8973C14.952 17.6684 16.052 19.0555 18.5276 20.7207L20.4517 22.1078L14.952 30.7023H10.5522L15.7762 22.9388C12.7521 20.7207 11.1006 18.7806 11.1006 15.1754C11.1006 10.7391 14.1247 7.68994 19.9002 7.68994H25.6757V30.7023H21.8274V10.7391H21.8243Z" fill="#fff"/></svg>