<svg width="969" height="805" viewBox="0 0 969 805" fill="none" xmlns="http://www.w3.org/2000/svg">
<rect width="969" height="805" rx="25" fill="#242424"/>
<path d="M718 87L796 37.5L793.5 0H819.5L838 20.5L898 3.5L852.5 37.5L898 75.5L841 67.5L822.5 131.5L802.5 67.5L718 87Z" fill="#CC6868"/>
<path d="M689.882 167.108L718.812 146.956L718.317 173.308L753.092 193.385L718.301 193.733L704.614 241.659L695.813 198.264L646.77 213.737L680.082 189.182L646.543 152.304L689.882 167.108Z" fill="#EFCD78"/>
<path fill-rule="evenodd" clip-rule="evenodd" d="M935.5 167L905.5 216L840 201L891.5 244.5L844.5 304L915.5 261.5L943 320.5V258.5L969 253.104V226.037L935.5 228.5V167Z" fill="#559D49"/>
</svg>
