<svg width="7" height="8" viewBox="0 0 7 8" fill="none" xmlns="http://www.w3.org/2000/svg">
<g clip-path="url(#clip0_201_20521)">
<path d="M5.42521 2.1049C4.91151 1.569 4.20068 1.28022 3.46207 1.29132C2.72347 1.28022 2.01541 1.569 1.50172 2.1049C0.963038 2.61859 0.674261 3.32943 0.685367 4.06803C0.674261 4.80663 0.963038 5.51469 1.49894 6.02839C2.01263 6.56707 2.72347 6.85584 3.46207 6.84474C4.20068 6.85584 4.90874 6.56707 5.42243 6.03116C5.96111 5.51747 6.24989 4.80663 6.23878 4.06803C6.24989 3.32943 5.96111 2.61859 5.42521 2.1049ZM4.85043 4.06803V5.73406H3.87858V4.3457H3.04557V5.73406H2.07372V4.06803H1.51838L3.46207 2.12434L5.5446 4.06803H4.85043Z" fill="white"/>
</g>
<defs>
<clipPath id="clip0_201_20521">
<rect width="6.6641" height="6.6641" fill="white" transform="translate(0.130005 0.736328)"/>
</clipPath>
</defs>
</svg>
